<?xml version="1.0" standalone="no"?>
<!DOCTYPE svg PUBLIC "-//W3C//DTD SVG 20010904//EN"
 "http://www.w3.org/TR/2001/REC-SVG-20010904/DTD/svg10.dtd">
<svg version="1.0" xmlns="http://www.w3.org/2000/svg"
 width="1217.000000pt" height="1216.000000pt" viewBox="0 0 1217.000000 1216.000000"
 preserveAspectRatio="xMidYMid meet">
<metadata>
Created by potrace 1.16, written by Peter Selinger 2001-2019
</metadata>
<g transform="translate(0.000000,1216.000000) scale(0.100000,-0.100000)"
fill="#000000" stroke="none">
<path d="M0 6080 l0 -6080 6085 0 6085 0 0 6080 0 6080 -6085 0 -6085 0 0
-6080z m5145 4965 c4 -51 12 -85 18 -85 6 0 48 18 92 40 128 63 288 90 458 75
82 -6 87 -8 83 -28 -3 -12 -7 -36 -10 -54 l-5 -31 103 -1 c198 -2 435 -63 625
-162 142 -73 137 -67 106 -124 -41 -77 -40 -78 88 -98 172 -26 331 -89 465
-183 67 -47 162 -132 162 -145 0 -4 -11 -20 -24 -36 -53 -63 -50 -69 97 -165
109 -71 328 -230 437 -317 35 -28 22 -33 -35 -14 -81 26 -317 22 -424 -6 -204
-54 -282 -102 -486 -301 -187 -183 -300 -277 -423 -353 -327 -202 -640 -292
-1063 -304 -497 -15 -991 82 -1664 324 l-150 54 -60 -63 c-413 -434 -755
-1006 -953 -1593 -283 -836 -336 -1700 -161 -2585 86 -430 268 -929 466 -1280
30 -52 60 -104 66 -114 282 -463 528 -750 951 -1114 15 -13 42 -34 60 -46 17
-11 65 -46 106 -76 41 -31 118 -82 170 -115 201 -124 233 -145 226 -145 -4 0
-19 6 -34 14 -50 25 -69 27 -86 10 -25 -24 -102 -22 -156 4 -71 35 -137 102
-101 102 13 0 20 50 7 51 -6 0 -38 1 -71 2 -52 2 -69 8 -130 47 -181 115 -505
430 -704 685 -34 44 -74 95 -89 114 -15 18 -31 41 -36 50 -5 9 -12 18 -15 21
-15 12 -111 159 -111 169 0 6 -4 11 -8 11 -9 0 -45 69 -56 107 -5 15 -1 25 12
35 22 16 34 54 23 77 -13 27 -92 182 -131 258 -21 40 -43 85 -49 100 -6 15
-15 35 -20 43 -5 8 -20 38 -31 65 -12 28 -28 64 -36 80 -7 17 -20 47 -28 68
-9 21 -20 36 -26 32 -5 -3 -10 -2 -10 4 0 5 5 11 11 13 11 4 -4 42 -21 58 -3
3 -7 16 -7 29 -1 13 -6 27 -11 30 -4 3 -14 32 -22 64 -7 31 -17 57 -22 57 -5
0 -6 10 -3 23 5 16 4 18 -3 8 -8 -11 -11 -10 -15 5 -3 10 -4 1 -1 -21 2 -22 1
-33 -2 -25 -15 35 -26 41 -40 23 -15 -20 -15 -19 -19 57 -1 17 -10 39 -19 49
-12 13 -15 27 -11 40 4 12 2 21 -4 21 -6 0 -11 8 -11 18 1 15 2 15 15 -2 8
-11 12 -31 10 -45 -3 -14 -2 -20 1 -13 9 19 24 14 34 -13 5 -14 14 -25 20 -25
7 0 7 6 0 20 -6 12 -9 29 -5 39 3 10 -4 38 -15 62 -22 50 -28 27 -6 -26 8 -19
11 -35 7 -35 -11 0 -32 41 -34 68 -1 14 -5 18 -11 12 -6 -6 -15 -10 -21 -10
-6 0 -5 3 2 8 6 4 15 20 19 36 4 19 3 27 -3 23 -7 -4 -12 14 -16 46 -5 56 -1
70 13 47 8 -12 10 -11 10 5 0 12 -5 26 -11 32 -5 5 -12 36 -15 68 -9 123 -19
64 -16 -100 2 -87 -14 -87 -22 1 -2 27 -5 53 -5 57 -1 5 -5 5 -11 2 -6 -4 -8
13 -5 45 4 37 2 49 -7 44 -7 -5 -9 -2 -5 8 3 9 2 19 -3 24 -29 30 -62 159 -86
334 -17 128 1 292 29 263 4 -3 7 4 6 18 -1 13 4 87 10 163 7 95 7 161 1 209
-12 85 -24 104 -16 27 4 -35 3 -46 -3 -30 -4 14 -8 63 -8 110 0 47 2 68 4 48
2 -21 8 -38 12 -38 5 0 12 -15 16 -32 7 -29 9 -25 15 37 4 39 3 72 -1 73 -5 2
-9 10 -9 18 0 9 4 13 9 9 5 -3 12 25 15 62 8 94 46 380 56 423 5 19 14 73 21
120 6 47 18 101 25 122 7 20 11 38 9 40 -3 2 2 26 10 53 8 26 15 61 15 76 0
22 -4 27 -20 24 -11 -2 -20 0 -20 6 0 5 -7 9 -15 9 -10 0 -15 10 -15 28 0 103
217 753 294 882 12 19 48 88 81 153 33 64 65 125 70 135 131 225 305 482 409
603 17 19 53 62 80 95 135 161 287 291 571 482 66 45 125 85 130 90 9 7 214
131 366 222 69 41 402 203 509 248 435 182 822 270 1205 273 l120 1 -95 19
c-474 93 -1104 -3 -1680 -254 -369 -161 -840 -457 -1135 -712 -101 -87 -114
-86 -32 3 29 31 66 75 82 97 16 22 32 42 35 45 19 17 189 269 247 365 12 19
79 156 108 220 8 17 31 68 53 115 21 47 43 96 47 110 4 14 14 33 22 42 8 9 17
35 20 57 3 23 11 41 17 41 6 -1 28 -25 50 -55 23 -33 43 -52 52 -48 7 3 30 28
50 56 86 121 280 329 374 401 77 60 148 99 165 92 8 -3 25 -26 37 -51 12 -25
29 -45 38 -45 9 0 33 18 53 39 65 69 188 154 306 213 63 31 118 55 122 52 4
-2 10 -42 14 -89z m3108 -1516 c75 -11 150 -35 217 -69 49 -25 60 -25 60 0 0
25 11 25 63 -1 63 -33 144 -97 176 -141 29 -39 29 -39 44 -18 8 12 12 31 9 42
-16 63 102 -77 154 -180 15 -31 29 -59 31 -61 1 -2 12 4 23 14 21 19 21 19 45
-10 33 -41 108 -194 140 -287 15 -43 31 -78 35 -78 4 0 13 7 20 15 19 23 27
10 34 -52 20 -164 65 -357 125 -527 36 -102 23 -93 -37 25 -50 101 -81 152
-166 274 -12 17 -24 32 -27 35 -3 3 -24 31 -47 62 -84 115 -331 352 -457 439
-27 19 -52 37 -55 40 -11 13 -160 87 -236 116 -125 50 -136 48 -38 -5 116 -63
165 -96 289 -197 308 -252 621 -685 784 -1085 23 -58 49 -121 58 -140 68 -155
204 -641 243 -869 63 -370 79 -564 79 -931 1 -582 -76 -1065 -256 -1609 -47
-144 -103 -294 -114 -306 -5 -5 -9 -15 -9 -21 0 -18 -154 -345 -190 -404 -5
-8 -37 -64 -71 -125 -139 -250 -385 -586 -572 -782 -27 -29 -55 -61 -63 -71
-12 -17 -198 -192 -285 -267 -464 -403 -1071 -701 -1641 -805 -235 -43 -298
-51 -494 -57 l-202 -6 -16 25 c-9 13 -19 45 -22 70 l-6 45 193 6 c389 13 650
60 1009 182 166 57 445 185 573 263 37 23 70 42 73 42 13 0 365 247 384 269 3
3 46 40 95 81 446 371 864 942 1114 1525 23 55 49 114 56 130 37 84 120 325
159 465 121 429 183 862 185 1290 1 180 -3 271 -24 550 -7 91 -43 353 -59 436
-62 309 -85 409 -107 459 -14 31 -69 209 -69 222 0 6 -4 13 -8 15 -5 2 -24 50
-42 108 -19 58 -44 125 -56 150 -13 25 -46 93 -73 153 l-51 107 -63 0 c-159 0
-390 44 -562 107 -324 119 -592 366 -773 713 -30 58 -62 113 -70 123 -8 9 -12
17 -8 17 14 0 -73 91 -135 143 -49 39 -202 117 -232 117 -10 0 -17 5 -15 13 6
15 114 42 233 58 123 16 116 12 109 58 -5 33 -3 41 15 51 66 35 225 28 325
-14 55 -23 59 -21 53 23 -4 32 -1 41 12 44 29 8 61 7 134 -4z m-4499 -609 c6
-6 -14 -34 -50 -72 -110 -116 -272 -320 -371 -468 -183 -273 -379 -661 -474
-940 -189 -552 -258 -959 -260 -1530 0 -135 2 -279 6 -320 13 -156 37 -349 56
-460 11 -63 25 -140 30 -171 26 -161 149 -575 215 -726 8 -17 14 -34 14 -37 0
-14 151 -325 206 -426 226 -414 561 -831 869 -1085 33 -28 62 -52 65 -55 3 -3
54 -43 113 -88 119 -90 250 -176 370 -242 43 -23 76 -44 74 -47 -6 -5 -97 43
-177 92 -30 19 -71 43 -90 55 -58 34 -251 175 -295 216 -11 11 -47 41 -80 69
-128 106 -356 334 -449 450 -31 39 -69 86 -84 105 -35 43 -176 248 -218 315
-122 195 -195 340 -289 575 -36 91 -70 174 -75 185 -11 22 -88 254 -100 300
-5 17 -33 129 -65 249 -31 121 -58 222 -60 226 -9 14 -38 242 -40 320 -22 642
-14 882 40 1210 58 354 114 584 220 904 72 216 105 298 145 356 9 14 23 41 30
60 8 19 16 37 19 40 3 3 22 37 41 75 19 39 37 72 40 75 3 3 16 25 29 50 63
118 235 374 324 484 115 139 153 184 176 205 14 13 27 28 27 33 1 4 2 15 3 24
1 12 7 15 29 9 15 -3 31 -11 36 -15z m3862 -641 c44 -49 86 -60 197 -53 65 4
116 3 138 -4 19 -6 54 -16 79 -23 42 -11 43 -12 21 -20 -15 -6 -36 -5 -58 2
-40 13 -203 17 -255 6 -30 -6 -43 -17 -63 -51 -14 -23 -25 -49 -25 -56 0 -8
-9 -24 -21 -36 -19 -20 -20 -26 -9 -59 9 -29 16 -35 33 -33 17 2 23 11 25 36
4 37 4 37 42 17 33 -17 80 -90 80 -124 0 -12 12 -42 26 -67 21 -35 28 -64 35
-150 7 -77 6 -110 -2 -120 -17 -20 -33 -17 -44 8 -14 32 -60 47 -81 27 -32
-32 16 -247 77 -346 22 -36 16 -42 -19 -17 -21 14 -23 14 -32 -12 -6 -15 -27
-48 -48 -75 -71 -92 -97 -134 -118 -191 -29 -79 -77 -155 -158 -251 -37 -45
-79 -104 -91 -132 -40 -85 -157 -557 -166 -668 -7 -77 -15 -112 -38 -160 -44
-94 -51 -122 -51 -219 0 -57 -4 -87 -10 -83 -15 9 -12 152 4 210 8 28 24 72
36 99 15 32 25 82 31 148 5 58 27 174 54 279 l45 180 -20 44 c-31 67 -25 96
21 121 40 20 61 64 53 112 -7 44 9 89 55 152 36 50 37 58 12 137 -10 32 -17
71 -14 86 6 30 16 34 107 40 93 6 115 50 81 164 -20 68 -17 105 10 101 60 -8
48 37 -14 48 -48 9 -76 29 -91 64 -13 31 -5 105 12 116 11 7 58 -34 58 -51 0
-22 46 -53 90 -60 44 -7 92 -45 128 -100 13 -20 13 -20 8 0 -3 11 -26 79 -51
151 -61 177 -68 218 -51 304 7 38 9 75 5 82 -5 7 -34 13 -74 15 l-66 2 21 -26
c46 -58 32 -66 -172 -89 -57 -7 -60 -18 -23 -88 15 -28 25 -64 25 -87 0 -42
-15 -62 -89 -119 -25 -19 -34 -35 -38 -68 -6 -43 -5 -45 56 -101 46 -43 61
-63 61 -84 0 -63 -73 -145 -136 -154 -34 -4 -42 -1 -68 27 -16 18 -48 74 -72
125 -50 107 -64 123 -99 107 -35 -16 -52 -48 -70 -134 -31 -151 -74 -228 -153
-270 l-42 -23 -36 20 c-20 11 -51 39 -68 63 -27 39 -31 51 -31 115 0 40 6 113
14 163 12 83 12 97 -4 144 -29 86 -53 102 -248 156 -118 32 -133 31 -174 -11
-32 -33 -83 -48 -83 -25 0 6 -9 23 -20 38 -11 15 -26 59 -34 97 -18 95 -27
113 -76 165 -85 90 -104 127 -108 208 -5 82 -14 94 -85 106 -34 6 -41 4 -66
-23 -16 -17 -38 -31 -49 -31 -26 0 -33 -21 -21 -62 15 -54 11 -79 -21 -115
-34 -38 -36 -51 -15 -119 19 -63 19 -98 -2 -141 -16 -35 -52 -57 -77 -47 -15
6 -66 94 -66 116 0 8 -11 25 -24 37 -20 19 -31 22 -65 16 -36 -6 -41 -11 -54
-48 -15 -46 -46 -64 -89 -54 -34 9 -48 46 -48 132 0 57 -5 82 -21 110 -19 32
-20 42 -11 87 11 59 5 88 -32 142 -14 21 -26 44 -26 51 0 27 -28 21 -80 -16
-91 -65 -141 -161 -159 -308 -6 -44 -15 -212 -21 -373 -29 -781 -24 -731 -90
-898 -69 -173 -95 -289 -69 -306 17 -10 32 12 32 48 0 18 2 25 4 15 3 -11 11
-16 19 -13 11 4 13 -3 8 -37 -3 -23 -8 -48 -10 -55 -6 -19 5 -34 19 -25 7 4
16 8 22 8 5 0 20 25 33 55 l23 55 -6 -45 c-3 -25 -10 -83 -16 -130 -13 -124
-34 -201 -94 -349 -29 -73 -55 -134 -58 -137 -2 -2 -4 44 -4 103 0 59 -3 167
-7 238 -7 104 -5 142 7 188 12 44 13 66 5 88 -13 38 9 140 58 260 73 180 74
187 90 694 22 708 36 788 160 913 34 34 69 62 78 62 9 0 34 9 56 20 30 15 59
20 122 20 89 0 223 -14 298 -30 205 -46 330 -82 540 -158 350 -125 428 -146
580 -157 47 -3 162 -13 257 -22 131 -12 179 -13 204 -4 51 18 101 13 216 -19
113 -32 146 -32 163 0 8 16 3 26 -35 61 -79 74 -126 206 -91 254 28 39 174 -7
241 -75 30 -30 42 -37 52 -29 19 16 16 59 -7 104 -11 22 -20 50 -20 63 0 13
-5 32 -10 43 -15 27 11 26 36 -2z m572 -66 c2 -23 -6 -63 -17 -94 -12 -30 -21
-57 -21 -61 0 -14 34 -8 70 11 75 42 80 42 136 26 32 -9 68 -29 90 -50 34 -32
36 -38 31 -77 -4 -35 -14 -51 -51 -84 -63 -57 -118 -72 -194 -50 -90 25 -88
26 -96 -56 -4 -40 -14 -102 -23 -138 -11 -46 -16 -116 -17 -235 -1 -181 -5
-197 -52 -234 -20 -15 -41 -21 -80 -21 -49 0 -102 15 -105 29 -1 3 -3 21 -5
39 -2 18 -11 43 -19 56 -23 34 -24 105 -2 121 17 12 192 14 204 2 3 -3 -4 -18
-16 -33 -27 -34 -27 -50 0 -65 15 -8 24 -8 32 0 7 7 12 95 14 245 2 177 6 244
17 270 17 41 21 75 13 96 -4 8 -13 34 -21 58 -13 36 -13 42 -1 42 8 0 20 -9
27 -20 15 -24 53 -26 62 -4 11 28 6 41 -17 51 -18 8 -28 27 -41 72 -17 60 -15
81 6 81 19 0 48 32 48 52 0 37 25 11 28 -29z m1000 -400 c403 -911 497 -1935
268 -2933 -116 -509 -330 -1010 -609 -1430 -239 -359 -582 -729 -867 -935 -30
-21 -57 -42 -60 -46 -11 -13 -220 -149 -300 -194 -211 -120 -358 -186 -590
-266 -296 -102 -559 -148 -930 -165 -158 -7 -200 1 -200 36 0 11 3 20 8 20 4
1 98 3 210 5 111 2 235 8 275 14 39 6 104 13 142 16 39 2 95 12 125 21 30 9
89 22 130 30 41 8 84 19 95 24 18 8 55 20 80 26 6 2 35 10 65 19 30 10 71 18
90 20 19 1 45 3 57 4 13 0 39 16 58 34 20 19 106 69 193 112 460 229 933 632
1259 1076 248 336 417 646 558 1018 57 152 119 345 145 451 11 47 29 117 40
155 28 101 77 414 95 605 14 143 16 235 13 615 0 86 -33 409 -54 545 -33 204
-119 588 -140 622 -3 4 -29 77 -58 161 -61 174 -112 302 -162 401 -19 38 -34
70 -34 72 0 2 8 4 19 4 14 0 32 -32 79 -137z m-4296 -69 c-15 -75 -15 -77 6
-93 12 -9 33 -42 48 -74 23 -51 25 -66 19 -125 -3 -37 -1 -107 5 -155 9 -75 8
-97 -6 -147 -15 -56 -15 -67 1 -172 32 -206 26 -257 -51 -449 -94 -234 -95
-264 -18 -913 22 -189 24 -227 14 -280 -7 -33 -14 -73 -17 -88 -7 -37 24 -64
91 -78 61 -13 146 -4 146 14 0 7 -9 39 -19 72 -11 32 -29 131 -41 219 -11 88
-23 170 -26 183 -2 12 0 22 6 22 5 0 10 -12 10 -27 0 -16 13 -105 29 -199 22
-128 37 -188 61 -240 18 -38 36 -81 40 -96 17 -55 -34 -73 -177 -66 -74 4 -89
8 -105 27 -10 13 -18 38 -18 56 0 18 -7 49 -16 70 -14 35 -14 43 2 101 18 68
18 86 -10 334 -9 74 -25 223 -37 330 -32 284 -27 356 34 490 13 30 40 93 58
140 37 95 38 107 26 505 -6 221 -20 312 -50 341 -21 19 -22 28 -21 175 1 149
8 214 24 204 4 -2 0 -39 -8 -81z m107 4 c0 -69 10 -125 61 -328 33 -135 65
-255 70 -267 14 -34 42 -18 75 43 22 41 35 54 52 54 30 0 43 -33 43 -104 0
-53 20 -119 40 -131 16 -10 12 -91 -5 -105 -24 -20 -35 -80 -26 -140 11 -70 3
-90 -56 -135 -49 -37 -85 -93 -98 -152 -3 -18 -11 -33 -16 -33 -5 0 -12 0 -16
0 -5 0 -9 9 -9 21 -1 12 -9 26 -18 31 -18 10 -21 40 -6 69 6 11 20 74 31 142
26 157 24 377 -4 420 -9 15 -24 55 -31 89 -8 35 -30 127 -50 206 -50 197 -68
339 -50 386 11 29 13 17 13 -66z m-129 -629 c0 -170 -5 -353 -10 -407 -15
-139 -49 -343 -61 -361 -11 -18 -7 31 16 194 20 140 35 430 35 682 0 140 3
212 10 208 6 -4 10 -120 10 -316z m1466 171 c39 -14 53 -39 65 -114 5 -33 17
-80 26 -103 8 -23 13 -53 9 -67 -7 -29 -53 -48 -93 -37 -27 7 -28 11 -33 80
-5 69 -7 73 -47 111 -45 41 -50 57 -32 109 9 26 16 31 43 31 18 0 46 -5 62
-10z m1502 -182 c-3 -7 -35 -103 -72 -213 -111 -330 -214 -513 -317 -565 -47
-25 -89 -27 -44 -3 90 49 158 138 232 304 39 90 43 107 42 173 -1 56 3 81 20
114 12 23 28 69 36 103 14 63 26 79 57 79 9 0 20 5 23 10 9 14 28 12 23 -2z
m-2190 -220 c7 -7 12 -24 12 -38 0 -40 11 -43 42 -13 15 15 28 22 28 17 0 -6
-14 -23 -31 -40 -52 -48 -94 -122 -143 -252 -26 -68 -51 -131 -56 -140 -4 -10
-36 -81 -70 -159 -75 -175 -110 -290 -110 -368 0 -101 60 -543 81 -601 11 -30
49 -97 85 -151 35 -54 64 -105 64 -114 0 -31 -28 -40 -137 -45 -97 -5 -111 -3
-140 15 -26 16 -33 28 -33 53 -1 18 -10 49 -20 68 -59 109 -69 135 -64 170 5
30 -21 189 -42 263 -3 9 -1 17 4 17 14 0 52 -166 61 -267 7 -70 13 -89 45
-137 40 -61 71 -76 158 -76 89 0 96 14 43 93 -19 28 -43 78 -54 110 -21 61
-81 500 -81 592 0 86 35 194 133 417 52 117 98 224 103 238 5 14 9 66 9 116
l0 91 38 42 c28 31 37 50 37 76 0 36 15 46 38 23z m1349 -538 c4 -103 1 -146
-17 -245 -19 -105 -21 -139 -16 -270 9 -202 -7 -393 -39 -480 -23 -60 -24 -69
-12 -98 8 -18 19 -44 25 -59 11 -27 13 -28 96 -28 l85 0 25 -36 c13 -20 22
-43 19 -50 -9 -23 -66 -32 -149 -23 -43 4 -85 8 -91 8 -16 1 -17 35 -3 62 8
14 4 35 -16 86 l-27 68 22 64 c32 91 44 237 38 441 -5 157 -3 190 20 320 21
122 24 164 19 265 -3 66 -14 157 -26 203 -11 46 -20 95 -19 110 0 15 14 -27
30 -93 22 -88 32 -153 36 -245z m-1229 241 c117 -67 275 -138 352 -157 102
-25 416 -26 535 -1 44 9 118 16 165 16 79 -1 82 -2 35 -9 -27 -5 -103 -18
-167 -29 -415 -73 -594 -42 -925 162 -102 63 -98 78 5 18z m1533 -513 c-7 -68
-24 -172 -39 -233 -24 -99 -27 -128 -27 -295 0 -172 2 -189 24 -242 29 -72 24
-88 -29 -88 -61 0 -101 26 -114 74 -4 17 0 18 56 13 58 -5 60 -5 54 16 -4 12
-12 96 -18 187 l-11 165 31 120 c24 95 72 363 72 409 0 5 3 7 6 3 3 -3 1 -61
-5 -129z m-1621 -1303 c531 -8 1354 -19 1830 -25 476 -5 983 -13 1128 -16 249
-6 262 -7 262 -25 0 -19 -9 -19 -252 -14 -360 7 -1526 23 -2558 35 -1416 17
-2472 39 -2375 51 94 11 999 9 1965 -6z m-599 -301 c30 -6 30 -7 24 -47 -9
-52 -19 -64 -40 -47 -22 18 -110 8 -143 -17 -46 -34 -67 -81 -67 -148 1 -71
23 -118 66 -140 34 -18 103 -24 136 -12 19 7 23 4 29 -27 11 -61 4 -66 -85
-66 -93 0 -120 9 -161 50 -44 45 -62 87 -68 155 -8 112 42 225 123 275 61 38
93 42 186 24z m-931 -249 c35 -140 60 -258 57 -261 -3 -4 -21 -4 -39 0 -25 5
-34 12 -36 29 -4 45 -28 110 -45 121 -12 8 -22 8 -37 -2 -25 -16 -50 -15 -51
1 0 10 -2 10 -6 0 -2 -7 -18 -13 -33 -13 -26 0 -30 -5 -40 -42 -20 -78 -27
-93 -41 -96 -12 -2 -15 8 -13 50 3 100 4 104 13 89 7 -10 10 -10 16 -1 4 7 2
15 -4 19 -16 10 -2 43 16 37 11 -4 11 -1 3 15 -9 15 -7 34 8 82 11 34 23 78
27 97 3 19 13 53 21 75 13 35 20 41 47 43 17 2 33 5 36 7 2 3 12 5 21 5 14 0
29 -48 80 -255z m325 142 c29 -62 62 -139 73 -171 23 -67 39 -88 51 -67 5 7
12 89 16 182 l7 169 30 0 29 0 -7 -252 c-3 -139 -9 -256 -13 -260 -11 -13 -81
3 -81 18 0 8 -3 14 -8 14 -4 0 -12 15 -18 33 -7 17 -38 92 -71 166 -47 108
-63 135 -81 138 l-22 3 0 -184 c0 -119 -4 -187 -11 -191 -5 -4 -22 -4 -36 0
l-26 6 7 127 c3 70 7 179 8 242 1 63 6 121 11 128 5 6 27 12 49 12 l39 0 54
-113z m804 16 l-2 -98 84 -6 c46 -3 89 -2 94 3 6 5 12 49 13 98 l4 88 35 7
c19 3 37 4 39 2 3 -2 0 -110 -6 -238 -5 -129 -10 -242 -10 -251 0 -14 -8 -18
-38 -18 l-38 0 4 98 c3 74 1 100 -9 109 -9 6 -45 9 -96 5 l-83 -5 0 -83 c0
-113 -8 -131 -54 -126 -28 3 -36 8 -32 21 2 9 7 120 11 246 4 127 9 233 12
238 2 4 20 7 39 7 l35 0 -2 -97z m703 87 c86 -24 117 -127 59 -192 l-30 -33
32 -33 c28 -29 32 -40 32 -87 0 -66 -22 -100 -86 -133 -37 -19 -57 -22 -128
-20 l-84 3 3 90 c1 50 5 160 9 245 6 154 6 154 31 161 38 11 121 10 162 -1z
m269 -96 l-3 -92 79 -4 c102 -6 107 -1 110 105 l2 82 36 3 37 3 -6 -163 c-4
-90 -9 -200 -12 -245 l-6 -83 -35 0 -36 0 7 80 c3 44 4 91 0 105 -6 25 -7 26
-93 23 l-86 -3 -5 -105 -5 -105 -35 0 -35 0 3 140 c2 106 8 289 12 353 0 2 17
2 37 0 l37 -3 -3 -91z m563 88 c6 -10 106 -456 106 -474 0 -4 -18 -8 -40 -8
-38 0 -40 2 -40 30 0 17 -7 46 -14 65 -14 33 -18 35 -63 35 -83 0 -89 -5 -103
-71 l-13 -59 -39 0 c-28 0 -39 4 -35 13 2 6 19 59 36 117 18 58 48 157 67 220
20 63 37 121 40 128 4 13 90 17 98 4z m268 -118 c-1 -65 -5 -174 -8 -242 l-6
-123 -31 3 -31 3 2 65 c11 381 14 409 36 413 40 8 41 3 38 -119z m455 103 c67
-35 96 -96 95 -202 -1 -125 -44 -202 -134 -239 -44 -19 -74 -21 -39 -3 43 21
102 139 109 215 5 62 -18 134 -51 157 -23 16 -103 20 -125 6 -10 -6 -15 -50
-19 -160 -5 -129 -4 -153 9 -164 9 -7 18 -24 20 -39 5 -24 2 -27 -40 -33 -27
-4 -49 -2 -55 4 -7 7 -7 57 1 163 7 84 12 188 12 230 0 76 0 77 28 81 47 9
159 -1 189 -16z m913 -5 c35 -22 48 -41 55 -83 7 -43 -18 -113 -48 -134 -19
-13 -19 -16 -5 -32 15 -16 48 -148 48 -188 0 -11 -10 -15 -36 -15 -26 0 -35 4
-31 13 9 23 -19 137 -39 158 -12 13 -28 19 -48 17 l-31 -3 -3 -92 -3 -93 -39
0 -38 0 8 33 c5 17 11 119 15 225 5 148 3 192 -6 192 -24 0 -1 11 42 20 55 11
126 3 159 -18z m-516 -115 c15 -72 38 -178 51 -234 l22 -103 -41 0 -41 0 -2
42 c-3 49 -28 92 -50 84 -8 -3 -34 -6 -58 -6 l-43 0 -11 -52 c-7 -28 -16 -57
-21 -63 -9 -11 -60 -9 -60 2 0 3 15 53 34 111 30 97 41 134 78 282 6 25 12 51
14 58 2 7 21 12 51 12 l48 0 29 -133z m221 -94 c-4 -126 -9 -231 -12 -235 -2
-5 -19 -8 -37 -8 l-33 0 7 43 c5 23 11 128 14 232 2 105 5 191 5 193 1 1 15 2
32 2 l31 0 -7 -227z m490 177 c7 -25 18 -67 26 -95 7 -27 14 -52 16 -54 6 -8
43 42 43 58 1 9 9 34 20 56 11 22 19 47 20 56 0 29 80 43 80 14 0 -8 -29 -71
-65 -140 -64 -124 -64 -126 -67 -218 -3 -91 -3 -92 -28 -92 -25 0 -25 1 -27
98 -1 54 -7 113 -14 130 -14 38 -65 150 -85 190 -18 37 -10 49 33 45 33 -3 37
-6 48 -48z m-1231 -669 c3 -5 17 -64 31 -132 14 -68 28 -136 32 -151 5 -23 2
-28 -15 -28 -15 0 -21 9 -26 34 -9 45 -23 55 -71 47 -35 -6 -40 -10 -48 -44
-8 -32 -13 -37 -38 -37 -28 0 -39 13 -20 25 9 5 27 56 66 190 10 33 18 66 19
73 4 26 58 44 70 23z m169 -116 l-6 -125 51 0 c51 0 52 -1 52 -29 0 -34 -9
-37 -84 -33 l-52 4 2 41 c1 23 2 93 3 155 1 104 2 112 20 112 19 0 19 -6 14
-125z m-853 85 c0 -27 -4 -30 -39 -36 l-38 -6 -7 -82 c-3 -44 -6 -103 -6 -129
0 -44 -2 -48 -22 -45 -23 3 -23 6 -23 133 l0 130 -35 0 c-31 0 -35 3 -35 25 0
21 6 26 40 31 22 3 68 7 103 8 l62 1 0 -30z m91 -88 c-3 -97 -1 -115 14 -132
26 -28 61 -25 82 7 13 20 19 55 23 132 4 94 7 106 24 109 18 4 19 -1 13 -109
-7 -129 -18 -171 -52 -193 -52 -34 -143 -8 -146 42 -1 9 -3 31 -5 47 -7 58 -7
192 0 204 5 7 18 11 29 9 21 -3 22 -7 18 -116z m355 112 c46 -12 61 -87 26
-133 -17 -23 -18 -30 -7 -52 7 -13 16 -45 20 -72 7 -45 6 -47 -18 -47 -21 0
-25 5 -31 46 -7 55 -20 74 -51 74 -26 0 -35 -22 -35 -88 0 -36 -3 -43 -17 -40
-16 3 -18 17 -15 154 1 84 2 154 2 158 0 8 98 8 126 0z m-1044 -98 c21 -50 38
-97 38 -105 1 -14 2 -14 10 0 5 8 10 56 12 105 3 89 3 89 30 92 l27 3 -5 -153
c-3 -84 -8 -159 -10 -166 -8 -25 -56 -9 -71 23 -8 17 -32 66 -53 110 l-39 80
0 -81 c-1 -123 -8 -144 -42 -144 -27 0 -28 2 -24 38 3 20 7 90 9 154 2 64 7
122 11 128 4 6 21 10 38 8 29 -3 34 -9 69 -92z m323 72 c3 -13 19 -80 35 -150
17 -70 30 -132 30 -137 0 -6 -13 -11 -29 -11 -26 0 -30 4 -36 41 l-7 40 -46
-3 c-44 -3 -46 -5 -57 -43 -9 -34 -15 -40 -35 -37 -13 1 -25 4 -26 5 -3 2 39
153 76 275 13 40 15 42 51 42 32 0 40 -4 44 -22z m-1015 -3 c43 -22 60 -63 60
-144 0 -185 -138 -249 -200 -93 -29 74 11 205 72 235 40 20 33 20 68 2z m212
-5 c63 -49 27 -180 -49 -180 -39 0 -63 35 -63 92 0 41 5 54 29 79 35 34 50 36
83 9z m-436 -8 c63 -53 58 -230 -8 -292 -30 -28 -88 -27 -115 3 -48 53 -56
159 -18 238 30 63 97 87 141 51z m-259 -104 c-4 -62 -7 -137 -7 -166 0 -52 -1
-53 -27 -50 l-28 3 -1 125 c-2 100 -5 124 -15 121 -8 -2 -23 -6 -33 -9 -15 -4
-18 -1 -13 12 4 10 7 21 7 26 0 15 65 50 94 50 l29 0 -6 -112z m878 -4 c8 -4
23 -20 31 -36 32 -61 -9 -158 -66 -158 -38 0 -62 32 -68 89 -4 46 -2 53 26 81
31 30 47 35 77 24z m1932 -242 c8 -20 19 -51 24 -68 10 -34 18 -37 102 -49 26
-4 47 -10 47 -13 0 -3 -22 -31 -50 -63 l-50 -57 7 -81 c3 -45 2 -81 -2 -81 -4
0 -25 16 -46 35 -22 19 -46 35 -54 35 -9 0 -39 -16 -68 -35 -63 -43 -72 -44
-52 -4 9 16 19 52 22 78 5 45 3 53 -31 97 -20 26 -35 52 -33 58 2 6 27 16 56
21 63 12 88 45 98 124 7 57 10 58 30 3z m-2981 -193 c11 -3 47 -10 82 -14 34
-4 62 -10 62 -13 0 -4 -27 -34 -59 -67 l-60 -60 9 -70 c5 -38 9 -81 10 -95 0
-24 -2 -23 -38 17 -42 45 -85 63 -111 45 -33 -23 -119 -72 -126 -72 -5 0 -1 8
8 18 17 18 36 89 37 134 0 16 -14 43 -35 68 -49 59 -46 63 57 85 33 6 68 77
68 135 0 61 12 54 45 -27 20 -46 40 -79 51 -84z m694 -171 c41 -103 39 -102
162 -114 37 -4 68 -9 68 -11 0 -3 -32 -40 -71 -84 l-72 -79 7 -83 c4 -45 9
-92 13 -104 7 -30 -23 -32 -32 -3 -7 21 -91 70 -120 70 -9 0 -47 -20 -85 -45
-39 -25 -77 -48 -86 -52 -14 -5 -15 -3 -1 23 17 34 37 122 37 164 0 20 -14 44
-50 83 -27 30 -50 60 -50 66 0 6 -5 11 -11 11 -5 0 -8 4 -5 8 3 5 38 14 78 21
40 7 80 16 88 20 23 11 68 110 76 164 4 26 9 45 12 43 2 -3 21 -47 42 -98z
m845 -53 c21 -55 44 -115 51 -133 7 -18 17 -31 21 -30 15 4 243 -25 243 -31 0
-3 -43 -55 -96 -115 l-97 -109 18 -144 c9 -79 15 -147 11 -150 -3 -3 -21 9
-39 28 -44 45 -154 112 -173 105 -8 -3 -66 -40 -130 -82 -109 -72 -149 -88
-110 -45 27 30 56 139 56 212 0 71 9 54 -110 196 -34 40 -44 65 -29 74 8 5 21
9 29 9 8 0 33 7 56 14 22 8 59 17 82 19 22 3 45 8 51 11 19 12 102 198 108
242 3 25 9 41 12 37 4 -4 24 -53 46 -108z m1003 -15 c-1 -5 -32 -41 -66 -80
-60 -66 -63 -73 -58 -108 13 -82 17 -172 9 -172 -5 0 -17 16 -26 35 -9 19 -23
35 -30 35 -7 0 -26 13 -41 29 -31 32 -22 47 26 43 26 -2 28 1 28 33 0 28 11
49 50 96 28 33 50 64 50 68 0 4 -10 13 -22 19 -20 9 -15 11 30 11 30 1 52 -3
50 -9z m-2373 -1107 c86 -29 337 -96 443 -118 26 -5 32 -12 33 -33 1 -15 2
-34 3 -42 0 -8 -3 -18 -9 -22 -6 -5 -4 -8 4 -8 8 0 3 -9 -12 -20 l-26 -21
-103 21 c-127 26 -225 55 -258 79 -14 10 -49 21 -79 25 -34 4 -71 18 -96 35
-23 15 -63 33 -90 40 -57 14 -116 46 -129 70 -6 9 -9 33 -7 53 2 37 -11 58
-55 85 -10 6 49 -16 131 -49 83 -33 195 -76 250 -95z"/>
<path d="M3995 4363 c-3 -21 -15 -68 -26 -106 -11 -37 -18 -71 -15 -76 3 -5
23 -12 43 -15 21 -3 48 -8 60 -10 32 -6 35 24 13 138 -11 56 -20 102 -20 104
0 1 -11 2 -25 2 -20 0 -25 -6 -30 -37z"/>
<path d="M5867 4194 c-3 -5 -7 -38 -8 -74 l-4 -65 46 -3 c118 -8 130 126 13
144 -23 3 -44 2 -47 -2z"/>
<path d="M5382 3642 c-45 -45 -37 -207 11 -200 31 4 47 44 47 114 0 45 -5 68
-18 84 l-19 23 -21 -21z"/>
<path d="M5129 3629 c-16 -31 -23 -129 -10 -162 13 -34 38 -45 58 -24 20 20
30 155 14 185 -15 28 -47 28 -62 1z"/>
</g>
</svg>
